BenchTwelve-Regular.ufo
<glyph name="quotedbl" format="1">
  <advance width="826"/>
  <unicode hex="0022"/>
  <outline>
    <contour>
      <point x="245" y="774" type="line" smooth="yes"/>
      <point x="202" y="774"/>
      <point x="205" y="798"/>
      <point x="199" y="841" type="curve" smooth="yes"/>
      <point x="133" y="1348" type="line" smooth="yes"/>
      <point x="132" y="1352"/>
      <point x="132" y="1357"/>
      <point x="132" y="1361" type="curve" smooth="yes"/>
      <point x="132" y="1400"/>
      <point x="160" y="1436"/>
      <point x="199" y="1436" type="curve" smooth="yes"/>
      <point x="286" y="1436" type="line" smooth="yes"/>
      <point x="326" y="1436"/>
      <point x="354" y="1397"/>
      <point x="354" y="1357" type="curve" smooth="yes"/>
      <point x="354" y="1354"/>
      <point x="353" y="1350"/>
      <point x="353" y="1347" type="curve" smooth="yes"/>
      <point x="294" y="841" type="line" smooth="yes"/>
      <point x="289" y="798"/>
      <point x="291" y="774"/>
      <point x="248" y="774" type="curve" smooth="yes"/>
    </contour>
    <contour>
      <point x="581" y="774" type="line" smooth="yes"/>
      <point x="538" y="774"/>
      <point x="541" y="798"/>
      <point x="535" y="841" type="curve" smooth="yes"/>
      <point x="469" y="1348" type="line" smooth="yes"/>
      <point x="468" y="1352"/>
      <point x="468" y="1355"/>
      <point x="468" y="1359" type="curve" smooth="yes"/>
      <point x="468" y="1398"/>
      <point x="497" y="1436"/>
      <point x="536" y="1436" type="curve" smooth="yes"/>
      <point x="623" y="1436" type="line" smooth="yes"/>
      <point x="663" y="1436"/>
      <point x="690" y="1397"/>
      <point x="690" y="1357" type="curve" smooth="yes"/>
      <point x="690" y="1354"/>
      <point x="689" y="1350"/>
      <point x="689" y="1347" type="curve" smooth="yes"/>
      <point x="630" y="841" type="line" smooth="yes"/>
      <point x="625" y="798"/>
      <point x="627" y="774"/>
      <point x="584" y="774" type="curve" smooth="yes"/>
    </contour>
  </outline>
</glyph>
<glyph name="parenright" format="1">
  <advance width="840"/>
  <unicode hex="0029"/>
  <outline>
    <contour>
      <point x="190" y="-143" type="curve" smooth="yes"/>
      <point x="187" y="-144"/>
      <point x="183" y="-144"/>
      <point x="180" y="-144" type="curve" smooth="yes"/>
      <point x="145" y="-144"/>
      <point x="113" y="-108"/>
      <point x="113" y="-73" type="curve" smooth="yes"/>
      <point x="113" y="-55" type="line" smooth="yes"/>
      <point x="113" y="14"/>
      <point x="156" y="13"/>
      <point x="218" y="45" type="curve"/>
      <point x="351" y="111"/>
      <point x="479" y="229"/>
      <point x="479" y="698" type="curve" smooth="yes"/>
      <point x="479" y="1167"/>
      <point x="350" y="1288"/>
      <point x="218" y="1354" type="curve" smooth="yes"/>
      <point x="156" y="1385"/>
      <point x="113" y="1385"/>
      <point x="113" y="1454" type="curve" smooth="yes"/>
      <point x="113" y="1470" type="line" smooth="yes"/>
      <point x="113" y="1505"/>
      <point x="145" y="1541"/>
      <point x="180" y="1541" type="curve" smooth="yes"/>
      <point x="183" y="1541"/>
      <point x="187" y="1541"/>
      <point x="190" y="1540" type="curve" smooth="yes"/>
      <point x="585" y="1458"/>
      <point x="698" y="1098"/>
      <point x="698" y="698" type="curve" smooth="yes"/>
      <point x="698" y="297"/>
      <point x="585" y="-62"/>
    </contour>
  </outline>
</glyph>
<glyph name="comma" format="1">
  <advance width="594"/>
  <unicode hex="002C"/>
  <outline>
    <contour>
      <point x="198" y="-300" type="curve" smooth="yes"/>
      <point x="193" y="-301"/>
      <point x="188" y="-301"/>
      <point x="183" y="-301" type="curve" smooth="yes"/>
      <point x="154" y="-301"/>
      <point x="132" y="-286"/>
      <point x="132" y="-255" type="curve" smooth="yes"/>
      <point x="132" y="-246" type="line" smooth="yes"/>
      <point x="132" y="-192"/>
      <point x="150" y="-198"/>
      <point x="193" y="-171" type="curve" smooth="yes"/>
      <point x="262" y="-128"/>
      <point x="294" y="-51"/>
      <point x="294" y="-27" type="curve" smooth="yes"/>
      <point x="294" y="-11"/>
      <point x="292" y="0"/>
      <point x="277" y="0" type="curve" smooth="yes"/>
      <point x="192" y="0" type="line" smooth="yes"/>
      <point x="154" y="0"/>
      <point x="132" y="12"/>
      <point x="132" y="50" type="curve" smooth="yes"/>
      <point x="132" y="253" type="line" smooth="yes"/>
      <point x="132" y="296"/>
      <point x="149" y="316"/>
      <point x="192" y="316" type="curve" smooth="yes"/>
      <point x="389" y="316" type="line" smooth="yes"/>
      <point x="432" y="316"/>
      <point x="466" y="282"/>
      <point x="466" y="239" type="curve" smooth="yes"/>
      <point x="466" y="97" type="line" smooth="yes"/>
      <point x="466" y="-140"/>
      <point x="336" y="-277"/>
    </contour>
  </outline>
</glyph>
<glyph name="colon" format="1">
  <advance width="585"/>
  <unicode hex="003A"/>
  <outline>
    <contour>
      <point x="225" y="0" type="line" smooth="yes"/>
      <point x="182" y="0"/>
      <point x="148" y="34"/>
      <point x="148" y="77" type="curve" smooth="yes"/>
      <point x="148" y="220" type="line" smooth="yes"/>
      <point x="148" y="263"/>
      <point x="182" y="297"/>
      <point x="225" y="297" type="curve" smooth="yes"/>
      <point x="360" y="297" type="line" smooth="yes"/>
      <point x="403" y="297"/>
      <point x="437" y="263"/>
      <point x="437" y="220" type="curve" smooth="yes"/>
      <point x="437" y="77" type="line" smooth="yes"/>
      <point x="437" y="34"/>
      <point x="403" y="0"/>
      <point x="360" y="0" type="curve" smooth="yes"/>
    </contour>
    <contour>
      <point x="225" y="756" type="line" smooth="yes"/>
      <point x="182" y="756"/>
      <point x="148" y="790"/>
      <point x="148" y="833" type="curve" smooth="yes"/>
      <point x="148" y="976" type="line" smooth="yes"/>
      <point x="148" y="1019"/>
      <point x="182" y="1053"/>
      <point x="225" y="1053" type="curve" smooth="yes"/>
      <point x="360" y="1053" type="line" smooth="yes"/>
      <point x="403" y="1053"/>
      <point x="437" y="1019"/>
      <point x="437" y="976" type="curve" smooth="yes"/>
      <point x="437" y="833" type="line" smooth="yes"/>
      <point x="437" y="790"/>
      <point x="403" y="756"/>
      <point x="360" y="756" type="curve" smooth="yes"/>
    </contour>
  </outline>
</glyph>
<glyph name="question" format="1">
  <advance width="1742"/>
  <unicode hex="003F"/>
  <outline>
    <contour>
      <point x="733" y="453" type="curve"/>
      <point x="733" y="453"/>
      <point x="719" y="430"/>
      <point x="695" y="446" type="curve" smooth="yes"/>
      <point x="675" y="460"/>
      <point x="646" y="477"/>
      <point x="630" y="489" type="curve" smooth="yes"/>
      <point x="610" y="504"/>
      <point x="623" y="525"/>
      <point x="622" y="525" type="curve"/>
      <point x="724" y="715"/>
      <point x="836" y="779"/>
      <point x="1040" y="796" type="curve" smooth="yes"/>
      <point x="1367" y="824"/>
      <point x="1434" y="896"/>
      <point x="1435" y="1048" type="curve"/>
      <point x="1435" y="1214"/>
      <point x="1274" y="1312"/>
      <point x="877" y="1312" type="curve" smooth="yes"/>
      <point x="595" y="1312"/>
      <point x="403" y="1267"/>
      <point x="206" y="1205" type="curve" smooth="yes"/>
      <point x="194" y="1201"/>
      <point x="183" y="1199"/>
      <point x="174" y="1199" type="curve" smooth="yes"/>
      <point x="149" y="1199"/>
      <point x="135" y="1213"/>
      <point x="124" y="1241" type="curve" smooth="yes"/>
      <point x="102" y="1292" type="line" smooth="yes"/>
      <point x="99" y="1299"/>
      <point x="98" y="1305"/>
      <point x="98" y="1311" type="curve" smooth="yes"/>
      <point x="98" y="1335"/>
      <point x="118" y="1357"/>
      <point x="149" y="1368" type="curve" smooth="yes"/>
      <point x="263" y="1409"/>
      <point x="549" y="1475"/>
      <point x="810" y="1475" type="curve" smooth="yes"/>
      <point x="1291" y="1475"/>
      <point x="1613" y="1383"/>
      <point x="1613" y="1032" type="curve" smooth="yes"/>
      <point x="1613" y="688"/>
      <point x="1176" y="681"/>
      <point x="990" y="657" type="curve" smooth="yes"/>
      <point x="825" y="635"/>
      <point x="743" y="468"/>
    </contour>
    <contour>
      <point x="624" y="0" type="line" smooth="yes"/>
      <point x="581" y="0"/>
      <point x="567" y="14"/>
      <point x="567" y="57" type="curve" smooth="yes"/>
      <point x="567" y="182" type="line" smooth="yes"/>
      <point x="567" y="225"/>
      <point x="581" y="238"/>
      <point x="624" y="238" type="curve" smooth="yes"/>
      <point x="792" y="238" type="line" smooth="yes"/>
      <point x="835" y="238"/>
      <point x="849" y="225"/>
      <point x="849" y="182" type="curve" smooth="yes"/>
      <point x="849" y="57" type="line" smooth="yes"/>
      <point x="849" y="14"/>
      <point x="835" y="0"/>
      <point x="792" y="0" type="curve" smooth="yes"/>
    </contour>
  </outline>
</glyph>
<glyph name="B" format="1">
  <advance width="2270"/>
  <unicode hex="0042"/>
  <outline>
    <contour>
      <point x="237" y="0" type="line" smooth="yes"/>
      <point x="194" y="0"/>
      <point x="160" y="34"/>
      <point x="160" y="77" type="curve" smooth="yes"/>
      <point x="160" y="1359" type="line" smooth="yes"/>
      <point x="160" y="1402"/>
      <point x="194" y="1438"/>
      <point x="237" y="1438" type="curve" smooth="yes"/>
      <point x="1450" y="1438" type="line" smooth="yes"/>
      <point x="1878" y="1438"/>
      <point x="2036" y="1339"/>
      <point x="2036" y="1040" type="curve" smooth="yes"/>
      <point x="2036" y="929"/>
      <point x="1969" y="848"/>
      <point x="1867" y="788" type="curve" smooth="yes"/>
      <point x="1854" y="780"/>
      <point x="1855" y="763"/>
      <point x="1870" y="757" type="curve" smooth="yes"/>
      <point x="2024" y="694"/>
      <point x="2134" y="590"/>
      <point x="2134" y="424" type="curve" smooth="yes"/>
      <point x="2134" y="96"/>
      <point x="1904" y="0"/>
      <point x="1405" y="0" type="curve" smooth="yes"/>
    </contour>
    <contour>
      <point x="412" y="155" type="line" smooth="yes"/>
      <point x="1480" y="155" type="line" smooth="yes"/>
      <point x="1667" y="155"/>
      <point x="1913" y="182"/>
      <point x="1913" y="415" type="curve" smooth="yes"/>
      <point x="1913" y="623"/>
      <point x="1745" y="665"/>
      <point x="1534" y="665" type="curve" smooth="yes"/>
      <point x="412" y="665" type="line" smooth="yes"/>
      <point x="392" y="665"/>
      <point x="375" y="660"/>
      <point x="375" y="625" type="curve" smooth="yes"/>
      <point x="375" y="190" type="line" smooth="yes"/>
      <point x="375" y="156"/>
      <point x="390" y="155"/>
      <point x="409" y="155" type="curve" smooth="yes"/>
    </contour>
    <contour>
      <point x="412" y="833" type="curve" smooth="yes"/>
      <point x="1551" y="833" type="line"/>
      <point x="1713" y="840"/>
      <point x="1833" y="873"/>
      <point x="1833" y="1044" type="curve" smooth="yes"/>
      <point x="1833" y="1277"/>
      <point x="1637" y="1282"/>
      <point x="1471" y="1282" type="curve" smooth="yes"/>
      <point x="412" y="1282" type="line" smooth="yes"/>
      <point x="392" y="1282"/>
      <point x="375" y="1274"/>
      <point x="375" y="1240" type="curve" smooth="yes"/>
      <point x="375" y="897" type="line" smooth="yes"/>
      <point x="375" y="863"/>
      <point x="392" y="833"/>
    </contour>
  </outline>
</glyph>
<glyph name="F" format="1">
  <advance width="1630"/>
  <unicode hex="0046"/>
  <outline>
    <contour>
      <point x="227" y="0" type="line" smooth="yes"/>
      <point x="184" y="0"/>
      <point x="160" y="24"/>
      <point x="160" y="67" type="curve" smooth="yes"/>
      <point x="160" y="1361" type="line" smooth="yes"/>
      <point x="160" y="1404"/>
      <point x="184" y="1438"/>
      <point x="227" y="1438" type="curve" smooth="yes"/>
      <point x="1455" y="1438" type="line" smooth="yes"/>
      <point x="1498" y="1438"/>
      <point x="1522" y="1404"/>
      <point x="1522" y="1361" type="curve" smooth="yes"/>
      <point x="1522" y="1318"/>
      <point x="1498" y="1284"/>
      <point x="1455" y="1284" type="curve" smooth="yes"/>
      <point x="396" y="1284" type="line" smooth="yes"/>
      <point x="376" y="1284"/>
      <point x="374" y="1279"/>
      <point x="374" y="1259" type="curve" smooth="yes"/>
      <point x="374" y="781" type="line" smooth="yes"/>
      <point x="374" y="782"/>
      <point x="383" y="774"/>
      <point x="383" y="774" type="curve"/>
      <point x="1330" y="774" type="line" smooth="yes"/>
      <point x="1373" y="774"/>
      <point x="1397" y="740"/>
      <point x="1397" y="697" type="curve" smooth="yes"/>
      <point x="1397" y="673" type="line" smooth="yes"/>
      <point x="1397" y="630"/>
      <point x="1373" y="596"/>
      <point x="1330" y="596" type="curve" smooth="yes"/>
      <point x="388" y="596" type="line" smooth="yes"/>
      <point x="389" y="596"/>
      <point x="374" y="580"/>
      <point x="374" y="580" type="curve"/>
      <point x="374" y="67" type="line" smooth="yes"/>
      <point x="374" y="24"/>
      <point x="350" y="0"/>
      <point x="307" y="0" type="curve" smooth="yes"/>
    </contour>
  </outline>
</glyph>
<glyph name="G" format="1">
  <advance width="2282"/>
  <unicode hex="0047"/>
  <outline>
    <contour>
      <point x="1130" y="-41" type="curve" smooth="yes"/>
      <point x="675" y="-41"/>
      <point x="133" y="101"/>
      <point x="133" y="721" type="curve" smooth="yes"/>
      <point x="133" y="1292"/>
      <point x="673" y="1475"/>
      <point x="1128" y="1475" type="curve" smooth="yes"/>
      <point x="1489" y="1475"/>
      <point x="1900" y="1362"/>
      <point x="2075" y="1034" type="curve" smooth="yes"/>
      <point x="2078" y="1028"/>
      <point x="2079" y="1024"/>
      <point x="2079" y="1019" type="curve" smooth="yes"/>
      <point x="2079" y="1010"/>
      <point x="2073" y="1001"/>
      <point x="2061" y="999" type="curve"/>
      <point x="2062" y="999" type="line" smooth="yes"/>
      <point x="2069" y="999"/>
      <point x="1922" y="974"/>
      <point x="1916" y="974" type="curve" smooth="yes"/>
      <point x="1859" y="974"/>
      <point x="1830" y="1022"/>
      <point x="1826" y="1030" type="curve"/>
      <point x="1696" y="1219"/>
      <point x="1428" y="1312"/>
      <point x="1128" y="1312" type="curve" smooth="yes"/>
      <point x="1124" y="1312" type="line" smooth="yes"/>
      <point x="721" y="1312"/>
      <point x="347" y="1142"/>
      <point x="347" y="721" type="curve" smooth="yes"/>
      <point x="347" y="225"/>
      <point x="737" y="121"/>
      <point x="1128" y="121" type="curve" smooth="yes"/>
      <point x="1535" y="121"/>
      <point x="1925" y="310"/>
      <point x="1925" y="564" type="curve" smooth="yes"/>
      <point x="1925" y="580"/>
      <point x="1919" y="606"/>
      <point x="1903" y="606" type="curve" smooth="yes"/>
      <point x="1304" y="606" type="line" smooth="yes"/>
      <point x="1261" y="606"/>
      <point x="1227" y="632"/>
      <point x="1227" y="675" type="curve" smooth="yes"/>
      <point x="1227" y="691" type="line" smooth="yes"/>
      <point x="1227" y="734"/>
      <point x="1261" y="760"/>
      <point x="1304" y="760" type="curve" smooth="yes"/>
      <point x="2057" y="760" type="line" smooth="yes"/>
      <point x="2100" y="760"/>
      <point x="2134" y="726"/>
      <point x="2134" y="683" type="curve" smooth="yes"/>
      <point x="2134" y="77" type="line" smooth="yes"/>
      <point x="2134" y="34"/>
      <point x="2111" y="0"/>
      <point x="2068" y="0" type="curve" smooth="yes"/>
      <point x="2022" y="0"/>
      <point x="1999" y="27"/>
      <point x="1987" y="70" type="curve"/>
      <point x="1977" y="101"/>
      <point x="1969" y="197"/>
      <point x="1960" y="251" type="curve" smooth="yes"/>
      <point x="1959" y="258"/>
      <point x="1957" y="275"/>
      <point x="1951" y="275" type="curve" smooth="yes"/>
      <point x="1948" y="275"/>
      <point x="1945" y="271"/>
      <point x="1937" y="265" type="curve"/>
      <point x="1744" y="32"/>
      <point x="1415" y="-41"/>
    </contour>
  </outline>
</glyph>
<glyph name="H" format="1">
  <advance width="2038"/>
  <unicode hex="0048"/>
  <outline>
    <contour>
      <point x="227" y="0" type="line" smooth="yes"/>
      <point x="184" y="0"/>
      <point x="160" y="24"/>
      <point x="160" y="67" type="curve" smooth="yes"/>
      <point x="160" y="1371" type="line" smooth="yes"/>
      <point x="160" y="1414"/>
      <point x="184" y="1438"/>
      <point x="227" y="1438" type="curve" smooth="yes"/>
      <point x="309" y="1438" type="line" smooth="yes"/>
      <point x="352" y="1438"/>
      <point x="376" y="1414"/>
      <point x="376" y="1371" type="curve" smooth="yes"/>
      <point x="376" y="835" type="line"/>
      <point x="376" y="827.272"/>
      <point x="381.824" y="821"/>
      <point x="389" y="821" type="curve" smooth="yes"/>
      <point x="1645" y="821" type="line"/>
      <point x="1654.94" y="821"/>
      <point x="1663" y="828.616"/>
      <point x="1663" y="838" type="curve" smooth="yes"/>
      <point x="1663" y="1371" type="line" smooth="yes"/>
      <point x="1663" y="1414"/>
      <point x="1686" y="1438"/>
      <point x="1729" y="1438" type="curve" smooth="yes"/>
      <point x="1811" y="1438" type="line" smooth="yes"/>
      <point x="1854" y="1438"/>
      <point x="1878" y="1414"/>
      <point x="1878" y="1371" type="curve" smooth="yes"/>
      <point x="1878" y="67" type="line" smooth="yes"/>
      <point x="1878" y="24"/>
      <point x="1854" y="0"/>
      <point x="1811" y="0" type="curve" smooth="yes"/>
      <point x="1729" y="0" type="line" smooth="yes"/>
      <point x="1686" y="0"/>
      <point x="1663" y="24"/>
      <point x="1663" y="67" type="curve" smooth="yes"/>
      <point x="1663" y="648" type="line"/>
      <point x="1663" y="657.936"/>
      <point x="1655.83" y="666"/>
      <point x="1647" y="666" type="curve"/>
      <point x="391" y="666" type="line" smooth="yes"/>
      <point x="382.72" y="666"/>
      <point x="376" y="658.832"/>
      <point x="376" y="650" type="curve"/>
      <point x="376" y="67" type="line" smooth="yes"/>
      <point x="376" y="24"/>
      <point x="352" y="0"/>
      <point x="309" y="0" type="curve" smooth="yes"/>
    </contour>
  </outline>
</glyph>
<glyph name="R" format="1">
  <advance width="2129"/>
  <unicode hex="0052"/>
  <outline>
    <contour>
      <point x="227" y="0" type="line" smooth="yes"/>
      <point x="184" y="0"/>
      <point x="160" y="24"/>
      <point x="160" y="67" type="curve" smooth="yes"/>
      <point x="160" y="1371" type="line" smooth="yes"/>
      <point x="160" y="1414"/>
      <point x="184" y="1438"/>
      <point x="227" y="1438" type="curve" smooth="yes"/>
      <point x="1010" y="1438" type="line"/>
      <point x="1017" y="1438" type="line" smooth="yes"/>
      <point x="1539" y="1438"/>
      <point x="1943" y="1437"/>
      <point x="1943" y="1014" type="curve" smooth="yes"/>
      <point x="1943" y="723"/>
      <point x="1815" y="631"/>
      <point x="1601" y="584" type="curve" smooth="yes"/>
      <point x="1598" y="583"/>
      <point x="1595" y="583"/>
      <point x="1595" y="581" type="curve" smooth="yes"/>
      <point x="1595" y="580"/>
      <point x="1596" y="578"/>
      <point x="1600" y="576" type="curve" smooth="yes"/>
      <point x="1653" y="558"/>
      <point x="1773" y="519"/>
      <point x="1850" y="351" type="curve"/>
      <point x="1976" y="68" type="line" smooth="yes"/>
      <point x="1981" y="60"/>
      <point x="1983" y="52"/>
      <point x="1983" y="45" type="curve" smooth="yes"/>
      <point x="1983" y="17"/>
      <point x="1949" y="0"/>
      <point x="1915" y="0" type="curve" smooth="yes"/>
      <point x="1823" y="0" type="line" smooth="yes"/>
      <point x="1780" y="0"/>
      <point x="1772" y="28"/>
      <point x="1750" y="67" type="curve"/>
      <point x="1625" y="331" type="line"/>
      <point x="1529" y="537"/>
      <point x="1297" y="539"/>
      <point x="1205" y="539" type="curve" smooth="yes"/>
      <point x="391" y="539" type="line"/>
      <point x="382.168" y="539"/>
      <point x="375" y="532.28"/>
      <point x="375" y="524" type="curve" smooth="yes"/>
      <point x="375" y="67" type="line" smooth="yes"/>
      <point x="375" y="24"/>
      <point x="351" y="0"/>
      <point x="308" y="0" type="curve" smooth="yes"/>
    </contour>
    <contour>
      <point x="391" y="706" type="curve" smooth="yes"/>
      <point x="1172" y="706" type="line" smooth="yes"/>
      <point x="1593" y="706"/>
      <point x="1733" y="717"/>
      <point x="1733" y="1005" type="curve" smooth="yes"/>
      <point x="1733" y="1256"/>
      <point x="1469" y="1284"/>
      <point x="1012" y="1284" type="curve" smooth="yes"/>
      <point x="392" y="1284" type="line"/>
      <point x="375" y="1270" type="line"/>
      <point x="375" y="718" type="line" smooth="yes"/>
      <point x="375" y="711.376"/>
      <point x="382.168" y="706"/>
    </contour>
  </outline>
</glyph>
<glyph name="S" format="1">
  <advance width="1963"/>
  <unicode hex="0053"/>
  <outline>
    <contour>
      <point x="1026" y="834" type="curve" smooth="yes"/>
      <point x="1052" y="834" type="line" smooth="yes"/>
      <point x="1628" y="834"/>
      <point x="1828" y="712"/>
      <point x="1828" y="436" type="curve" smooth="yes"/>
      <point x="1828" y="58"/>
      <point x="1552" y="-41"/>
      <point x="964" y="-41" type="curve" smooth="yes"/>
      <point x="657" y="-41"/>
      <point x="463" y="-9"/>
      <point x="186" y="97" type="curve" smooth="yes"/>
      <point x="161" y="107"/>
      <point x="145" y="134"/>
      <point x="145" y="163" type="curve" smooth="yes"/>
      <point x="145" y="172"/>
      <point x="155" y="212"/>
      <point x="155" y="212" type="curve"/>
      <point x="170" y="244"/>
      <point x="192" y="257"/>
      <point x="223" y="257" type="curve" smooth="yes"/>
      <point x="287" y="257"/>
      <point x="438" y="121"/>
      <point x="984" y="121" type="curve" smooth="yes"/>
      <point x="1533" y="121"/>
      <point x="1625" y="228"/>
      <point x="1625" y="410" type="curve" smooth="yes"/>
      <point x="1625" y="570"/>
      <point x="1568" y="658"/>
      <point x="996" y="658" type="curve" smooth="yes"/>
      <point x="971" y="658" type="line" smooth="yes"/>
      <point x="404" y="658"/>
      <point x="145" y="728"/>
      <point x="145" y="1045" type="curve" smooth="yes"/>
      <point x="145" y="1408"/>
      <point x="505" y="1475"/>
      <point x="988" y="1475" type="curve" smooth="yes"/>
      <point x="1306" y="1475"/>
      <point x="1476" y="1429"/>
      <point x="1676" y="1341" type="curve" smooth="yes"/>
      <point x="1700" y="1330"/>
      <point x="1715" y="1304"/>
      <point x="1716" y="1276" type="curve" smooth="yes"/>
      <point x="1716" y="1266"/>
      <point x="1716" y="1260"/>
      <point x="1711" y="1250" type="curve"/>
      <point x="1711" y="1250"/>
      <point x="1704" y="1191"/>
      <point x="1638" y="1191" type="curve" smooth="yes"/>
      <point x="1637" y="1191" type="line" smooth="yes"/>
      <point x="1578" y="1191"/>
      <point x="1451" y="1312"/>
      <point x="984" y="1312" type="curve" smooth="yes"/>
      <point x="471" y="1312"/>
      <point x="354" y="1201"/>
      <point x="354" y="1066" type="curve" smooth="yes"/>
      <point x="354" y="914"/>
      <point x="395" y="834"/>
    </contour>
  </outline>
</glyph>
<glyph name="d" format="1">
  <advance width="1671"/>
  <unicode hex="0064"/>
  <outline>
    <contour>
      <point x="787" y="-41" type="curve" smooth="yes"/>
      <point x="495" y="-41"/>
      <point x="129" y="106"/>
      <point x="129" y="504" type="curve" smooth="yes"/>
      <point x="129" y="913"/>
      <point x="483" y="1053"/>
      <point x="806" y="1053" type="curve" smooth="yes"/>
      <point x="1004" y="1053"/>
      <point x="1174" y="990"/>
      <point x="1281" y="858" type="curve" smooth="yes"/>
      <point x="1285" y="854"/>
      <point x="1289" y="850"/>
      <point x="1292" y="845" type="curve"/>
      <point x="1292" y="1372" type="line" smooth="yes"/>
      <point x="1292" y="1415"/>
      <point x="1316" y="1438"/>
      <point x="1359" y="1438" type="curve" smooth="yes"/>
      <point x="1444" y="1438" type="line" smooth="yes"/>
      <point x="1487" y="1438"/>
      <point x="1511" y="1415"/>
      <point x="1511" y="1372" type="curve" smooth="yes"/>
      <point x="1511" y="67" type="line" smooth="yes"/>
      <point x="1511" y="24"/>
      <point x="1501" y="0"/>
      <point x="1458" y="0" type="curve" smooth="yes"/>
      <point x="1445" y="0" type="line" smooth="yes"/>
      <point x="1420" y="0"/>
      <point x="1399" y="31"/>
      <point x="1379" y="71" type="curve"/>
      <point x="1356" y="120"/>
      <point x="1343" y="172"/>
      <point x="1327" y="220" type="curve"/>
      <point x="1214" y="50"/>
      <point x="992" y="-41"/>
    </contour>
    <contour>
      <point x="818" y="116" type="curve" smooth="yes"/>
      <point x="1078" y="116"/>
      <point x="1293" y="243"/>
      <point x="1292" y="504" type="curve"/>
      <point x="1293" y="790"/>
      <point x="1062" y="896"/>
      <point x="818" y="896" type="curve" smooth="yes"/>
      <point x="579" y="896"/>
      <point x="348" y="792"/>
      <point x="348" y="504" type="curve" smooth="yes"/>
      <point x="348" y="240"/>
      <point x="563" y="116"/>
    </contour>
  </outline>
</glyph>
<glyph name="q" format="1">
  <advance width="1663"/>
  <unicode hex="0071"/>
  <outline>
    <contour>
      <point x="1360" y="-430" type="line" smooth="yes"/>
      <point x="1317" y="-430"/>
      <point x="1293" y="-406"/>
      <point x="1293" y="-363" type="curve" smooth="yes"/>
      <point x="1293" y="147" type="line" smooth="yes"/>
      <point x="1293" y="154"/>
      <point x="1291" y="156"/>
      <point x="1289" y="156" type="curve" smooth="yes"/>
      <point x="1286" y="156"/>
      <point x="1282" y="151"/>
      <point x="1281" y="150" type="curve" smooth="yes"/>
      <point x="1171" y="23"/>
      <point x="1003" y="-42"/>
      <point x="807" y="-42" type="curve" smooth="yes"/>
      <point x="484" y="-42"/>
      <point x="130" y="98"/>
      <point x="130" y="507" type="curve" smooth="yes"/>
      <point x="130" y="905"/>
      <point x="496" y="1052"/>
      <point x="788" y="1052" type="curve" smooth="yes"/>
      <point x="986" y="1052"/>
      <point x="1204" y="968"/>
      <point x="1320" y="805" type="curve" smooth="yes"/>
      <point x="1322" y="802"/>
      <point x="1324" y="800"/>
      <point x="1327" y="800" type="curve" smooth="yes"/>
      <point x="1329" y="800"/>
      <point x="1332" y="802"/>
      <point x="1334" y="808" type="curve" smooth="yes"/>
      <point x="1347" y="844"/>
      <point x="1363" y="887"/>
      <point x="1376" y="927" type="curve"/>
      <point x="1395" y="993"/>
      <point x="1419" y="1011"/>
      <point x="1447" y="1011" type="curve" smooth="yes"/>
      <point x="1459" y="1011" type="line" smooth="yes"/>
      <point x="1502" y="1011"/>
      <point x="1511" y="988"/>
      <point x="1511" y="945" type="curve" smooth="yes"/>
      <point x="1511" y="-363" type="line" smooth="yes"/>
      <point x="1511" y="-406"/>
      <point x="1488" y="-430"/>
      <point x="1445" y="-430" type="curve" smooth="yes"/>
    </contour>
    <contour>
      <point x="819" y="107" type="curve" smooth="yes"/>
      <point x="1063" y="107"/>
      <point x="1294" y="222"/>
      <point x="1293" y="507" type="curve"/>
      <point x="1294" y="768"/>
      <point x="1079" y="904"/>
      <point x="819" y="904" type="curve" smooth="yes"/>
      <point x="564" y="904"/>
      <point x="349" y="772"/>
      <point x="349" y="507" type="curve" smooth="yes"/>
      <point x="349" y="220"/>
      <point x="580" y="107"/>
    </contour>
  </outline>
</glyph>
<glyph name="z" format="1">
  <advance width="1457"/>
  <unicode hex="007A"/>
  <outline>
    <contour>
      <point x="210" y="0" type="line" smooth="yes"/>
      <point x="190" y="0"/>
      <point x="142" y="17"/>
      <point x="142" y="37" type="curve" smooth="yes"/>
      <point x="142" y="118" type="line" smooth="yes"/>
      <point x="142" y="141"/>
      <point x="154" y="167"/>
      <point x="171" y="178" type="curve"/>
      <point x="1032" y="851" type="line"/>
      <point x="183" y="851" type="line" smooth="yes"/>
      <point x="163" y="851"/>
      <point x="146" y="868"/>
      <point x="146" y="888" type="curve" smooth="yes"/>
      <point x="146" y="969" type="line" smooth="yes"/>
      <point x="146" y="989"/>
      <point x="163" y="1006"/>
      <point x="183" y="1006" type="curve" smooth="yes"/>
      <point x="1215" y="1006" type="line" smooth="yes"/>
      <point x="1235" y="1006"/>
      <point x="1282" y="989"/>
      <point x="1282" y="969" type="curve" smooth="yes"/>
      <point x="1282" y="871" type="line" smooth="yes"/>
      <point x="1282" y="848"/>
      <point x="1270" y="823"/>
      <point x="1253" y="810" type="curve" smooth="yes"/>
      <point x="438" y="155" type="line"/>
      <point x="1284" y="155" type="line" smooth="yes"/>
      <point x="1304" y="155"/>
      <point x="1321" y="138"/>
      <point x="1321" y="118" type="curve" smooth="yes"/>
      <point x="1321" y="37" type="line" smooth="yes"/>
      <point x="1321" y="17"/>
      <point x="1304" y="0"/>
      <point x="1284" y="0" type="curve" smooth="yes"/>
    </contour>
  </outline>
</glyph>
<glyph name="braceright" format="1">
  <advance width="927"/>
  <unicode hex="007D"/>
  <outline>
    <contour>
      <point x="515" y="232" type="curve" smooth="yes"/>
      <point x="515" y="212" type="line" smooth="yes"/>
      <point x="515" y="-9"/>
      <point x="468" y="-119"/>
      <point x="242" y="-119" type="curve" smooth="yes"/>
      <point x="198" y="-119" type="line" smooth="yes"/>
      <point x="156" y="-119"/>
      <point x="121" y="-104"/>
      <point x="121" y="-62" type="curve" smooth="yes"/>
      <point x="121" y="-14" type="line" smooth="yes"/>
      <point x="121" y="36"/>
      <point x="143" y="49"/>
      <point x="191" y="49" type="curve" smooth="yes"/>
      <point x="197" y="49" type="line" smooth="yes"/>
      <point x="309" y="49"/>
      <point x="347" y="70"/>
      <point x="347" y="247" type="curve" smooth="yes"/>
      <point x="347" y="252" type="line" smooth="yes"/>
      <point x="347" y="416"/>
      <point x="347" y="671"/>
      <point x="472" y="699" type="curve" smooth="yes"/>
      <point x="479" y="701"/>
      <point x="482" y="706"/>
      <point x="482" y="712" type="curve" smooth="yes"/>
      <point x="482" y="718"/>
      <point x="479" y="723"/>
      <point x="472" y="725" type="curve" smooth="yes"/>
      <point x="348" y="753"/>
      <point x="347" y="1000"/>
      <point x="347" y="1164" type="curve" smooth="yes"/>
      <point x="347" y="1177" type="line" smooth="yes"/>
      <point x="347" y="1354"/>
      <point x="309" y="1375"/>
      <point x="197" y="1375" type="curve" smooth="yes"/>
      <point x="191" y="1375" type="line" smooth="yes"/>
      <point x="143" y="1375"/>
      <point x="121" y="1388"/>
      <point x="121" y="1438" type="curve" smooth="yes"/>
      <point x="121" y="1487" type="line" smooth="yes"/>
      <point x="121" y="1529"/>
      <point x="156" y="1543"/>
      <point x="198" y="1543" type="curve" smooth="yes"/>
      <point x="242" y="1543" type="line" smooth="yes"/>
      <point x="468" y="1543"/>
      <point x="515" y="1433"/>
      <point x="515" y="1212" type="curve" smooth="yes"/>
      <point x="515" y="1192" type="line" smooth="yes"/>
      <point x="515" y="878"/>
      <point x="552" y="816"/>
      <point x="643" y="816" type="curve" smooth="yes"/>
      <point x="710" y="816" type="line" smooth="yes"/>
      <point x="779" y="816"/>
      <point x="802" y="802"/>
      <point x="802" y="712" type="curve" smooth="yes"/>
      <point x="802" y="622"/>
      <point x="779" y="608"/>
      <point x="710" y="608" type="curve"/>
      <point x="710" y="608"/>
      <point x="647" y="608"/>
      <point x="647" y="609" type="curve"/>
      <point x="645" y="609" type="line" smooth="yes"/>
      <point x="553" y="609"/>
      <point x="515" y="548"/>
    </contour>
  </outline>
</glyph>
<glyph name="sterling" format="1">
  <advance width="1713"/>
  <unicode hex="00A3"/>
  <outline>
    <contour>
      <point x="203" y="0" type="line" smooth="yes"/>
      <point x="160" y="0"/>
      <point x="146" y="18"/>
      <point x="146" y="61" type="curve" smooth="yes"/>
      <point x="146" y="91" type="line" smooth="yes"/>
      <point x="146" y="134"/>
      <point x="160" y="158"/>
      <point x="203" y="158" type="curve" smooth="yes"/>
      <point x="338" y="158" type="line" smooth="yes"/>
      <point x="367" y="158"/>
      <point x="370" y="168"/>
      <point x="370" y="211" type="curve" smooth="yes"/>
      <point x="370" y="650" type="line" smooth="yes"/>
      <point x="370" y="677"/>
      <point x="363" y="693"/>
      <point x="338" y="693" type="curve" smooth="yes"/>
      <point x="203" y="693" type="line" smooth="yes"/>
      <point x="160" y="693"/>
      <point x="146" y="710"/>
      <point x="146" y="753" type="curve" smooth="yes"/>
      <point x="146" y="782" type="line" smooth="yes"/>
      <point x="146" y="825"/>
      <point x="160" y="843"/>
      <point x="203" y="843" type="curve" smooth="yes"/>
      <point x="370" y="843" type="line"/>
      <point x="369" y="1219"/>
      <point x="530" y="1475"/>
      <point x="991" y="1475" type="curve" smooth="yes"/>
      <point x="1230" y="1475"/>
      <point x="1417" y="1426"/>
      <point x="1530" y="1393" type="curve" smooth="yes"/>
      <point x="1567" y="1383"/>
      <point x="1583" y="1366"/>
      <point x="1583" y="1336" type="curve" smooth="yes"/>
      <point x="1583" y="1332"/>
      <point x="1583" y="1328"/>
      <point x="1582" y="1323" type="curve" smooth="yes"/>
      <point x="1565" y="1271" type="line"/>
      <point x="1554" y="1241"/>
      <point x="1547" y="1227"/>
      <point x="1521" y="1227" type="curve" smooth="yes"/>
      <point x="1514" y="1227"/>
      <point x="1507" y="1228"/>
      <point x="1498" y="1230" type="curve" smooth="yes"/>
      <point x="1459" y="1237"/>
      <point x="1182" y="1311"/>
      <point x="1000" y="1311" type="curve" smooth="yes"/>
      <point x="691" y="1311"/>
      <point x="586" y="1186"/>
      <point x="586" y="906" type="curve" smooth="yes"/>
      <point x="586" y="843" type="line"/>
      <point x="1004" y="843" type="line" smooth="yes"/>
      <point x="1047" y="843"/>
      <point x="1060" y="825"/>
      <point x="1060" y="782" type="curve" smooth="yes"/>
      <point x="1060" y="753" type="line" smooth="yes"/>
      <point x="1060" y="710"/>
      <point x="1047" y="693"/>
      <point x="1004" y="693" type="curve" smooth="yes"/>
      <point x="584" y="693" type="line"/>
      <point x="584" y="227" type="line" smooth="yes"/>
      <point x="584" y="167"/>
      <point x="587" y="158"/>
      <point x="658" y="158" type="curve" smooth="yes"/>
      <point x="1517" y="158" type="line" smooth="yes"/>
      <point x="1549" y="158"/>
      <point x="1573" y="147"/>
      <point x="1573" y="105" type="curve" smooth="yes"/>
      <point x="1573" y="40" type="line" smooth="yes"/>
      <point x="1573" y="5"/>
      <point x="1549" y="0"/>
      <point x="1517" y="0" type="curve" smooth="yes"/>
    </contour>
  </outline>
</glyph>
<glyph name="currency" format="1">
  <advance width="1307"/>
  <unicode hex="00A4"/>
  <outline>
    <contour>
      <point x="653" y="426" type="curve" smooth="yes"/>
      <point x="519" y="426"/>
      <point x="440" y="459"/>
      <point x="355" y="515" type="curve"/>
      <point x="324" y="484" type="line" smooth="yes"/>
      <point x="303" y="463"/>
      <point x="285" y="445"/>
      <point x="267" y="445" type="curve" smooth="yes"/>
      <point x="259" y="445"/>
      <point x="250" y="448"/>
      <point x="242" y="457" type="curve" smooth="yes"/>
      <point x="210" y="489" type="line" smooth="yes"/>
      <point x="200" y="499"/>
      <point x="196" y="509"/>
      <point x="196" y="518" type="curve" smooth="yes"/>
      <point x="196" y="537"/>
      <point x="213" y="554"/>
      <point x="233" y="574" type="curve" smooth="yes"/>
      <point x="258" y="599" type="line"/>
      <point x="180" y="688"/>
      <point x="140" y="805"/>
      <point x="140" y="931" type="curve" smooth="yes"/>
      <point x="140" y="1059"/>
      <point x="181" y="1177"/>
      <point x="260" y="1268" type="curve"/>
      <point x="233" y="1295" type="line" smooth="yes"/>
      <point x="212" y="1316"/>
      <point x="194" y="1334"/>
      <point x="194" y="1352" type="curve" smooth="yes"/>
      <point x="194" y="1360"/>
      <point x="198" y="1369"/>
      <point x="207" y="1377" type="curve" smooth="yes"/>
      <point x="239" y="1409" type="line" smooth="yes"/>
      <point x="249" y="1419"/>
      <point x="259" y="1423"/>
      <point x="268" y="1423" type="curve" smooth="yes"/>
      <point x="287" y="1423"/>
      <point x="304" y="1406"/>
      <point x="324" y="1386" type="curve" smooth="yes"/>
      <point x="358" y="1352" type="line"/>
      <point x="443" y="1407"/>
      <point x="521" y="1440"/>
      <point x="653" y="1440" type="curve" smooth="yes"/>
      <point x="785" y="1440"/>
      <point x="865" y="1407"/>
      <point x="950" y="1352" type="curve"/>
      <point x="983" y="1385" type="line" smooth="yes"/>
      <point x="1004" y="1406"/>
      <point x="1021" y="1423"/>
      <point x="1040" y="1423" type="curve" smooth="yes"/>
      <point x="1049" y="1423"/>
      <point x="1058" y="1419"/>
      <point x="1068" y="1409" type="curve" smooth="yes"/>
      <point x="1101" y="1377" type="line" smooth="yes"/>
      <point x="1109" y="1368"/>
      <point x="1113" y="1360"/>
      <point x="1113" y="1352" type="curve" smooth="yes"/>
      <point x="1113" y="1334"/>
      <point x="1095" y="1316"/>
      <point x="1074" y="1295" type="curve" smooth="yes"/>
      <point x="1047" y="1268" type="line"/>
      <point x="1126" y="1177"/>
      <point x="1167" y="1059"/>
      <point x="1167" y="931" type="curve" smooth="yes"/>
      <point x="1167" y="805"/>
      <point x="1127" y="689"/>
      <point x="1050" y="599" type="curve"/>
      <point x="1074" y="575" type="line" smooth="yes"/>
      <point x="1095" y="554"/>
      <point x="1112" y="537"/>
      <point x="1112" y="518" type="curve" smooth="yes"/>
      <point x="1112" y="509"/>
      <point x="1108" y="500"/>
      <point x="1098" y="490" type="curve" smooth="yes"/>
      <point x="1066" y="457" type="line" smooth="yes"/>
      <point x="1057" y="449"/>
      <point x="1049" y="445"/>
      <point x="1041" y="445" type="curve" smooth="yes"/>
      <point x="1022" y="445"/>
      <point x="1004" y="463"/>
      <point x="984" y="484" type="curve" smooth="yes"/>
      <point x="953" y="515" type="line"/>
      <point x="867" y="459"/>
      <point x="787" y="426"/>
    </contour>
    <contour>
      <point x="653" y="529" type="curve" smooth="yes"/>
      <point x="943" y="529"/>
      <point x="1051" y="744"/>
      <point x="1051" y="931" type="curve" smooth="yes"/>
      <point x="1051" y="1127"/>
      <point x="943" y="1336"/>
      <point x="653" y="1336" type="curve" smooth="yes"/>
      <point x="363" y="1336"/>
      <point x="255" y="1127"/>
      <point x="255" y="931" type="curve" smooth="yes"/>
      <point x="255" y="744"/>
      <point x="363" y="529"/>
    </contour>
  </outline>
</glyph>
<glyph name="dieresis" format="1">
  <advance width="1181"/>
  <unicode hex="00A8"/>
  <outline>
    <contour>
      <point x="228" y="1184" type="line" smooth="yes"/>
      <point x="185" y="1184"/>
      <point x="151" y="1217"/>
      <point x="151" y="1260" type="curve" smooth="yes"/>
      <point x="151" y="1356" type="line" smooth="yes"/>
      <point x="151" y="1399"/>
      <point x="185" y="1432"/>
      <point x="228" y="1432" type="curve" smooth="yes"/>
      <point x="355" y="1432" type="line" smooth="yes"/>
      <point x="398" y="1432"/>
      <point x="432" y="1399"/>
      <point x="432" y="1356" type="curve" smooth="yes"/>
      <point x="432" y="1260" type="line" smooth="yes"/>
      <point x="432" y="1217"/>
      <point x="398" y="1184"/>
      <point x="355" y="1184" type="curve" smooth="yes"/>
    </contour>
    <contour>
      <point x="827" y="1184" type="line" smooth="yes"/>
      <point x="784" y="1184"/>
      <point x="750" y="1217"/>
      <point x="750" y="1260" type="curve" smooth="yes"/>
      <point x="750" y="1356" type="line" smooth="yes"/>
      <point x="750" y="1399"/>
      <point x="784" y="1432"/>
      <point x="827" y="1432" type="curve" smooth="yes"/>
      <point x="954" y="1432" type="line" smooth="yes"/>
      <point x="997" y="1432"/>
      <point x="1031" y="1399"/>
      <point x="1031" y="1356" type="curve" smooth="yes"/>
      <point x="1031" y="1260" type="line" smooth="yes"/>
      <point x="1031" y="1217"/>
      <point x="997" y="1184"/>
      <point x="954" y="1184" type="curve" smooth="yes"/>
    </contour>
  </outline>
</glyph>
<glyph name="copyright" format="1">
  <advance width="1899"/>
  <unicode hex="00A9"/>
  <outline>
    <contour>
      <point x="1249" y="530" type="curve" smooth="yes"/>
      <point x="1277" y="530"/>
      <point x="1297" y="470"/>
      <point x="1297" y="438" type="curve" smooth="yes"/>
      <point x="1297" y="416"/>
      <point x="1286" y="396"/>
      <point x="1270" y="389" type="curve" smooth="yes"/>
      <point x="1188" y="351"/>
      <point x="1077" y="325"/>
      <point x="969" y="325" type="curve" smooth="yes"/>
      <point x="737" y="325"/>
      <point x="508" y="444"/>
      <point x="508" y="726" type="curve" smooth="yes"/>
      <point x="508" y="1011"/>
      <point x="758" y="1122"/>
      <point x="952" y="1122" type="curve" smooth="yes"/>
      <point x="1068" y="1122"/>
      <point x="1185" y="1093"/>
      <point x="1265" y="1048" type="curve"/>
      <point x="1285" y="1038"/>
      <point x="1292" y="1019"/>
      <point x="1292" y="997" type="curve" smooth="yes"/>
      <point x="1292" y="959"/>
      <point x="1271" y="907"/>
      <point x="1241" y="907" type="curve" smooth="yes"/>
      <point x="1237" y="907"/>
      <point x="1232" y="909"/>
      <point x="1227" y="911" type="curve" smooth="yes"/>
      <point x="1160" y="940"/>
      <point x="1066" y="967"/>
      <point x="982" y="967" type="curve" smooth="yes"/>
      <point x="818" y="967"/>
      <point x="683" y="894"/>
      <point x="683" y="725" type="curve" smooth="yes"/>
      <point x="683" y="544"/>
      <point x="818" y="474"/>
      <point x="976" y="474" type="curve" smooth="yes"/>
      <point x="1066" y="474"/>
      <point x="1164" y="499"/>
      <point x="1235" y="526" type="curve" smooth="yes"/>
      <point x="1240" y="529"/>
      <point x="1245" y="530"/>
    </contour>
    <contour>
      <point x="952" y="80" type="curve" smooth="yes"/>
      <point x="1433" y="80"/>
      <point x="1613" y="419"/>
      <point x="1613" y="713" type="curve" smooth="yes"/>
      <point x="1613" y="1019"/>
      <point x="1433" y="1350"/>
      <point x="952" y="1350" type="curve" smooth="yes"/>
      <point x="470" y="1350"/>
      <point x="290" y="1019"/>
      <point x="290" y="713" type="curve" smooth="yes"/>
      <point x="290" y="419"/>
      <point x="470" y="80"/>
    </contour>
    <contour>
      <point x="949" y="-41" type="curve" smooth="yes"/>
      <point x="405" y="-41"/>
      <point x="133" y="318"/>
      <point x="133" y="717" type="curve" smooth="yes"/>
      <point x="133" y="1116"/>
      <point x="405" y="1475"/>
      <point x="949" y="1475" type="curve" smooth="yes"/>
      <point x="1493" y="1475"/>
      <point x="1765" y="1116"/>
      <point x="1765" y="717" type="curve" smooth="yes"/>
      <point x="1765" y="318"/>
      <point x="1493" y="-41"/>
    </contour>
  </outline>
</glyph>
<glyph name="degree" format="1">
  <advance width="1345"/>
  <unicode hex="00B0"/>
  <outline>
    <contour>
      <point x="675" y="108" type="curve" smooth="yes"/>
      <point x="965" y="108"/>
      <point x="1073" y="324"/>
      <point x="1073" y="511" type="curve" smooth="yes"/>
      <point x="1073" y="706"/>
      <point x="965" y="916"/>
      <point x="675" y="916" type="curve" smooth="yes"/>
      <point x="385" y="916"/>
      <point x="277" y="706"/>
      <point x="277" y="511" type="curve" smooth="yes"/>
      <point x="277" y="324"/>
      <point x="385" y="108"/>
    </contour>
    <contour>
      <point x="673" y="-9" type="curve" smooth="yes"/>
      <point x="319" y="-9"/>
      <point x="142" y="240"/>
      <point x="142" y="514" type="curve" smooth="yes"/>
      <point x="142" y="789"/>
      <point x="319" y="1037"/>
      <point x="673" y="1037" type="curve" smooth="yes"/>
      <point x="1027" y="1037"/>
      <point x="1203" y="789"/>
      <point x="1203" y="514" type="curve" smooth="yes"/>
      <point x="1203" y="240"/>
      <point x="1027" y="-9"/>
    </contour>
  </outline>
</glyph>
<glyph name="plusminus" format="1">
  <advance width="1217"/>
  <unicode hex="00B1"/>
  <outline>
    <contour>
      <point x="158" y="-36" type="line" smooth="yes"/>
      <point x="115" y="-36"/>
      <point x="91" y="-13"/>
      <point x="91" y="31" type="curve" smooth="yes"/>
      <point x="91" y="78" type="line" smooth="yes"/>
      <point x="91" y="121"/>
      <point x="115" y="145"/>
      <point x="158" y="145" type="curve" smooth="yes"/>
      <point x="1048" y="145" type="line" smooth="yes"/>
      <point x="1091" y="145"/>
      <point x="1115" y="121"/>
      <point x="1115" y="78" type="curve" smooth="yes"/>
      <point x="1115" y="31" type="line" smooth="yes"/>
      <point x="1115" y="-11"/>
      <point x="1091" y="-36"/>
      <point x="1048" y="-36" type="curve" smooth="yes"/>
    </contour>
    <contour>
      <point x="570" y="224" type="line" smooth="yes"/>
      <point x="527" y="224"/>
      <point x="514" y="248"/>
      <point x="514" y="291" type="curve" smooth="yes"/>
      <point x="514" y="565" type="line" smooth="yes"/>
      <point x="514" y="585"/>
      <point x="507" y="602"/>
      <point x="487" y="602" type="curve" smooth="yes"/>
      <point x="186" y="602" type="line" smooth="yes"/>
      <point x="143" y="602"/>
      <point x="129" y="616"/>
      <point x="129" y="659" type="curve" smooth="yes"/>
      <point x="129" y="718" type="line" smooth="yes"/>
      <point x="129" y="761"/>
      <point x="143" y="774"/>
      <point x="186" y="774" type="curve" smooth="yes"/>
      <point x="487" y="774" type="line" smooth="yes"/>
      <point x="507" y="774"/>
      <point x="514" y="790"/>
      <point x="514" y="810" type="curve" smooth="yes"/>
      <point x="514" y="1096" type="line" smooth="yes"/>
      <point x="514" y="1139"/>
      <point x="527" y="1163"/>
      <point x="570" y="1163" type="curve" smooth="yes"/>
      <point x="646" y="1163" type="line" smooth="yes"/>
      <point x="689" y="1163"/>
      <point x="702" y="1139"/>
      <point x="702" y="1096" type="curve" smooth="yes"/>
      <point x="702" y="810" type="line" smooth="yes"/>
      <point x="702" y="790"/>
      <point x="709" y="774"/>
      <point x="729" y="774" type="curve" smooth="yes"/>
      <point x="1031" y="774" type="line" smooth="yes"/>
      <point x="1074" y="774"/>
      <point x="1087" y="761"/>
      <point x="1087" y="718" type="curve" smooth="yes"/>
      <point x="1087" y="659" type="line" smooth="yes"/>
      <point x="1087" y="616"/>
      <point x="1074" y="602"/>
      <point x="1031" y="602" type="curve" smooth="yes"/>
      <point x="729" y="602" type="line" smooth="yes"/>
      <point x="709" y="602"/>
      <point x="702" y="585"/>
      <point x="702" y="565" type="curve" smooth="yes"/>
      <point x="702" y="291" type="line" smooth="yes"/>
      <point x="702" y="248"/>
      <point x="689" y="224"/>
      <point x="646" y="224" type="curve" smooth="yes"/>
    </contour>
  </outline>
</glyph>
<glyph name="uni00B2" format="1">
  <advance width="1461"/>
  <unicode hex="00B2"/>
  <outline>
    <contour>
      <point x="172" y="421.002" type="line" smooth="yes"/>
      <point x="141" y="421.002"/>
      <point x="122" y="438.002"/>
      <point x="122" y="486.002" type="curve" smooth="yes"/>
      <point x="122" y="498.002"/>
      <point x="123" y="512.002"/>
      <point x="126" y="529.002" type="curve" smooth="yes"/>
      <point x="250" y="1153"/>
      <point x="1185" y="781.002"/>
      <point x="1185" y="1139" type="curve" smooth="yes"/>
      <point x="1185" y="1284"/>
      <point x="1057" y="1355"/>
      <point x="750" y="1355" type="curve" smooth="yes"/>
      <point x="487" y="1355"/>
      <point x="238" y="1269"/>
      <point x="235" y="1263" type="curve" smooth="yes"/>
      <point x="233" y="1259"/>
      <point x="236" y="1259"/>
      <point x="227" y="1259" type="curve" smooth="yes"/>
      <point x="204" y="1259"/>
      <point x="191" y="1267"/>
      <point x="188" y="1283" type="curve"/>
      <point x="165" y="1333"/>
      <point x="166" y="1335"/>
      <point x="166" y="1337" type="curve" smooth="yes"/>
      <point x="167" y="1363"/>
      <point x="176" y="1374"/>
      <point x="194" y="1383" type="curve"/>
      <point x="278" y="1411"/>
      <point x="504" y="1475"/>
      <point x="740" y="1475" type="curve" smooth="yes"/>
      <point x="1105" y="1475"/>
      <point x="1336" y="1389"/>
      <point x="1336" y="1137" type="curve" smooth="yes"/>
      <point x="1336" y="636.002"/>
      <point x="426" y="1003"/>
      <point x="312" y="563.002" type="curve"/>
      <point x="312" y="537.002"/>
      <point x="330" y="537.002"/>
      <point x="345" y="537.002" type="curve" smooth="yes"/>
      <point x="1283" y="537.002" type="line" smooth="yes"/>
      <point x="1312" y="537.002"/>
      <point x="1315" y="524.002"/>
      <point x="1315" y="495.002" type="curve" smooth="yes"/>
      <point x="1315" y="455.002" type="line" smooth="yes"/>
      <point x="1315" y="423.002"/>
      <point x="1306" y="421.002"/>
      <point x="1279" y="421.002" type="curve" smooth="yes"/>
    </contour>
  </outline>
</glyph>
<glyph name="acute" format="1">
  <advance width="1745"/>
  <unicode hex="00B4"/>
  <outline>
    <contour>
      <point x="850" y="1166" type="line" smooth="yes"/>
      <point x="837" y="1166"/>
      <point x="834" y="1177"/>
      <point x="834" y="1190" type="curve" smooth="yes"/>
      <point x="834" y="1206"/>
      <point x="839" y="1226"/>
      <point x="841" y="1233" type="curve" smooth="yes"/>
      <point x="904" y="1542" type="line" smooth="yes"/>
      <point x="912" y="1585"/>
      <point x="925" y="1597"/>
      <point x="969" y="1597" type="curve" smooth="yes"/>
      <point x="1132" y="1597" type="line" smooth="yes"/>
      <point x="1152" y="1597"/>
      <point x="1160" y="1585"/>
      <point x="1160" y="1569" type="curve" smooth="yes"/>
      <point x="1160" y="1558"/>
      <point x="1155" y="1544"/>
      <point x="1148" y="1532" type="curve"/>
      <point x="924" y="1205" type="line" smooth="yes"/>
      <point x="898" y="1166"/>
      <point x="888" y="1166"/>
      <point x="876" y="1166" type="curve" smooth="yes"/>
    </contour>
  </outline>
</glyph>
<glyph name="uni00B9" format="1">
  <advance width="714"/>
  <unicode hex="00B9"/>
  <outline>
    <contour>
      <point x="429" y="434" type="line" smooth="yes"/>
      <point x="398" y="434"/>
      <point x="394" y="451"/>
      <point x="394" y="483" type="curve"/>
      <point x="394" y="690" type="line" smooth="yes"/>
      <point x="394" y="1281" type="line"/>
      <point x="394" y="1281"/>
      <point x="399" y="1313"/>
      <point x="368" y="1313" type="curve"/>
      <point x="169" y="1290" type="line"/>
      <point x="137" y="1290"/>
      <point x="128" y="1309"/>
      <point x="128" y="1340" type="curve"/>
      <point x="129" y="1340"/>
      <point x="130" y="1363"/>
      <point x="130" y="1363" type="curve"/>
      <point x="130" y="1395"/>
      <point x="148" y="1408"/>
      <point x="179" y="1408" type="curve"/>
      <point x="180" y="1408" type="line" smooth="yes"/>
      <point x="198" y="1408"/>
      <point x="546" y="1443"/>
      <point x="546" y="1443" type="curve"/>
      <point x="567" y="1443"/>
      <point x="571" y="1433"/>
      <point x="571" y="1417" type="curve" smooth="yes"/>
      <point x="571" y="1410"/>
      <point x="570" y="1401"/>
      <point x="570" y="1391" type="curve"/>
      <point x="569" y="1391"/>
      <point x="568" y="480"/>
      <point x="568" y="480" type="curve" smooth="yes"/>
      <point x="568" y="456"/>
      <point x="554" y="434"/>
      <point x="528" y="434" type="curve" smooth="yes"/>
    </contour>
  </outline>
</glyph>
<glyph name="onehalf" format="1">
  <advance width="3418"/>
  <unicode hex="00BD"/>
  <outline>
    <contour>
      <point x="2075" y="0" type="line" smooth="yes"/>
      <point x="2044" y="0"/>
      <point x="2025" y="17"/>
      <point x="2025" y="65" type="curve" smooth="yes"/>
      <point x="2025" y="77"/>
      <point x="2026" y="92"/>
      <point x="2029" y="109" type="curve" smooth="yes"/>
      <point x="2158" y="733"/>
      <point x="3128" y="360"/>
      <point x="3128" y="718" type="curve" smooth="yes"/>
      <point x="3128" y="863"/>
      <point x="2988" y="934"/>
      <point x="2653" y="934" type="curve" smooth="yes"/>
      <point x="2390" y="934"/>
      <point x="2141" y="848"/>
      <point x="2138" y="842" type="curve" smooth="yes"/>
      <point x="2136" y="838"/>
      <point x="2139" y="839"/>
      <point x="2130" y="839" type="curve" smooth="yes"/>
      <point x="2107" y="839"/>
      <point x="2094" y="846"/>
      <point x="2091" y="862" type="curve"/>
      <point x="2068" y="912"/>
      <point x="2069" y="914"/>
      <point x="2069" y="916" type="curve" smooth="yes"/>
      <point x="2070" y="942"/>
      <point x="2079" y="954"/>
      <point x="2097" y="963" type="curve"/>
      <point x="2181" y="991"/>
      <point x="2407" y="1054"/>
      <point x="2643" y="1054" type="curve" smooth="yes"/>
      <point x="3033" y="1054"/>
      <point x="3279" y="968"/>
      <point x="3279" y="716" type="curve" smooth="yes"/>
      <point x="3279" y="215"/>
      <point x="2333" y="583"/>
      <point x="2215" y="143" type="curve"/>
      <point x="2215" y="117"/>
      <point x="2233" y="116"/>
      <point x="2248" y="116" type="curve" smooth="yes"/>
      <point x="3186" y="116" type="line" smooth="yes"/>
      <point x="3215" y="116"/>
      <point x="3218" y="104"/>
      <point x="3218" y="75" type="curve" smooth="yes"/>
      <point x="3218" y="35" type="line" smooth="yes"/>
      <point x="3218" y="3"/>
      <point x="3209" y="0"/>
      <point x="3182" y="0" type="curve" smooth="yes"/>
    </contour>
    <contour>
      <point x="927" y="-205" type="line" smooth="yes"/>
      <point x="909" y="-205"/>
      <point x="906" y="-187"/>
      <point x="914" y="-171" type="curve" smooth="yes"/>
      <point x="1809" y="1618" type="line" smooth="yes"/>
      <point x="1819" y="1638"/>
      <point x="1822" y="1648"/>
      <point x="1849" y="1648" type="curve"/>
      <point x="1883" y="1648" type="line" smooth="yes"/>
      <point x="1981" y="1648" type="line" smooth="yes"/>
      <point x="1993" y="1648"/>
      <point x="1998" y="1640"/>
      <point x="1998" y="1629" type="curve" smooth="yes"/>
      <point x="1998" y="1624"/>
      <point x="1997" y="1618"/>
      <point x="1995" y="1613" type="curve" smooth="yes"/>
      <point x="1994" y="1613"/>
      <point x="1109" y="-170"/>
      <point x="1109" y="-170" type="curve" smooth="yes"/>
      <point x="1091" y="-205"/>
      <point x="1085" y="-205"/>
      <point x="1059" y="-205" type="curve" smooth="yes"/>
    </contour>
    <contour>
      <point x="439" y="434" type="line" smooth="yes"/>
      <point x="408" y="434"/>
      <point x="404" y="451"/>
      <point x="404" y="483" type="curve"/>
      <point x="404" y="690" type="line" smooth="yes"/>
      <point x="404" y="1281" type="line"/>
      <point x="404" y="1281"/>
      <point x="409" y="1313"/>
      <point x="378" y="1313" type="curve"/>
      <point x="179" y="1290" type="line"/>
      <point x="147" y="1290"/>
      <point x="138" y="1309"/>
      <point x="138" y="1340" type="curve"/>
      <point x="139" y="1340"/>
      <point x="140" y="1363"/>
      <point x="140" y="1363" type="curve"/>
      <point x="140" y="1395"/>
      <point x="158" y="1408"/>
      <point x="189" y="1408" type="curve"/>
      <point x="190" y="1408" type="line" smooth="yes"/>
      <point x="208" y="1408"/>
      <point x="556" y="1443"/>
      <point x="556" y="1443" type="curve"/>
      <point x="577" y="1443"/>
      <point x="581" y="1433"/>
      <point x="581" y="1417" type="curve" smooth="yes"/>
      <point x="581" y="1410"/>
      <point x="580" y="1401"/>
      <point x="580" y="1391" type="curve"/>
      <point x="579" y="1391"/>
      <point x="578" y="480"/>
      <point x="578" y="480" type="curve" smooth="yes"/>
      <point x="578" y="456"/>
      <point x="564" y="434"/>
      <point x="538" y="434" type="curve" smooth="yes"/>
    </contour>
  </outline>
</glyph>
<glyph name="ae" format="1">
  <advance width="2783"/>
  <unicode hex="00E6"/>
  <outline>
    <contour>
      <point x="716" y="-41" type="curve" smooth="yes"/>
      <point x="324" y="-41"/>
      <point x="140" y="62"/>
      <point x="137" y="238" type="curve"/>
      <point x="137" y="670"/>
      <point x="1320" y="606"/>
      <point x="1320" y="641" type="curve" smooth="yes"/>
      <point x="1320" y="675"/>
      <point x="1322" y="688"/>
      <point x="1322" y="703" type="curve" smooth="yes"/>
      <point x="1322" y="770"/>
      <point x="1285" y="902"/>
      <point x="881" y="902" type="curve" smooth="yes"/>
      <point x="797" y="902"/>
      <point x="498" y="895"/>
      <point x="407" y="801" type="curve" smooth="yes"/>
      <point x="386" y="779"/>
      <point x="351" y="747"/>
      <point x="330" y="747" type="curve" smooth="yes"/>
      <point x="324" y="747"/>
      <point x="321" y="748"/>
      <point x="312" y="749" type="curve" smooth="yes"/>
      <point x="196" y="765" type="line" smooth="yes"/>
      <point x="179" y="767"/>
      <point x="164" y="785"/>
      <point x="164" y="802" type="curve" smooth="yes"/>
      <point x="164" y="820"/>
      <point x="171" y="835"/>
      <point x="175" y="846" type="curve" smooth="yes"/>
      <point x="228" y="992"/>
      <point x="474" y="1052"/>
      <point x="879" y="1052" type="curve" smooth="yes"/>
      <point x="1225" y="1052"/>
      <point x="1393" y="969"/>
      <point x="1455" y="831" type="curve"/>
      <point x="1591" y="980"/>
      <point x="1823" y="1052"/>
      <point x="2019" y="1052" type="curve" smooth="yes"/>
      <point x="2450" y="1052"/>
      <point x="2600" y="814"/>
      <point x="2650" y="609" type="curve"/>
      <point x="2650" y="558" type="line"/>
      <point x="2649" y="522"/>
      <point x="2627" y="450"/>
      <point x="2515" y="450" type="curve" smooth="yes"/>
      <point x="1556" y="450" type="line" smooth="yes"/>
      <point x="1545" y="450"/>
      <point x="1539" y="466"/>
      <point x="1539" y="458" type="curve" smooth="yes"/>
      <point x="1540" y="333"/>
      <point x="1626" y="106"/>
      <point x="2049" y="106" type="curve" smooth="yes"/>
      <point x="2220" y="106"/>
      <point x="2432" y="179"/>
      <point x="2498" y="210" type="curve" smooth="yes"/>
      <point x="2514" y="217"/>
      <point x="2528" y="220"/>
      <point x="2540" y="220" type="curve" smooth="yes"/>
      <point x="2558" y="220"/>
      <point x="2570" y="213"/>
      <point x="2574" y="201" type="curve" smooth="yes"/>
      <point x="2576" y="195"/>
      <point x="2598" y="122"/>
      <point x="2597" y="115" type="curve"/>
      <point x="2597" y="97"/>
      <point x="2586" y="80"/>
      <point x="2553" y="63" type="curve" smooth="yes"/>
      <point x="2428" y="2"/>
      <point x="2182" y="-42"/>
      <point x="2041" y="-42" type="curve" smooth="yes"/>
      <point x="1769" y="-42"/>
      <point x="1558" y="32"/>
      <point x="1433" y="246" type="curve" smooth="yes"/>
      <point x="1431" y="248"/>
      <point x="1429" y="251"/>
      <point x="1426" y="251" type="curve" smooth="yes"/>
      <point x="1424" y="251"/>
      <point x="1422" y="251"/>
      <point x="1419" y="247" type="curve" smooth="yes"/>
      <point x="1279" y="71"/>
      <point x="1050" y="-41"/>
    </contour>
    <contour>
      <point x="727" y="101" type="curve" smooth="yes"/>
      <point x="1037" y="101"/>
      <point x="1323" y="233"/>
      <point x="1323" y="485" type="curve" smooth="yes"/>
      <point x="1323" y="499"/>
      <point x="1323" y="502"/>
      <point x="1312" y="502" type="curve" smooth="yes"/>
      <point x="1309" y="502"/>
      <point x="1196" y="492"/>
      <point x="1191" y="491" type="curve" smooth="yes"/>
      <point x="590" y="451"/>
      <point x="365" y="382"/>
      <point x="365" y="250" type="curve"/>
      <point x="367" y="154"/>
      <point x="452" y="101"/>
    </contour>
    <contour>
      <point x="1551" y="589" type="curve" smooth="yes"/>
      <point x="2467" y="589" type="line"/>
      <point x="2466" y="591" type="line"/>
      <point x="2416" y="733"/>
      <point x="2344" y="902"/>
      <point x="2018" y="902" type="curve" smooth="yes"/>
      <point x="1804" y="902"/>
      <point x="1579" y="813"/>
      <point x="1543" y="596" type="curve" smooth="yes"/>
      <point x="1543" y="592"/>
      <point x="1544" y="589"/>
    </contour>
  </outline>
</glyph>
<glyph name="oe" format="1">
  <advance width="2698"/>
  <unicode hex="0153"/>
  <outline>
    <contour>
      <point x="816" y="-41" type="curve" smooth="yes"/>
      <point x="520" y="-41"/>
      <point x="131" y="109"/>
      <point x="131" y="504" type="curve" smooth="yes"/>
      <point x="131" y="910"/>
      <point x="488" y="1052"/>
      <point x="816" y="1052" type="curve" smooth="yes"/>
      <point x="1042" y="1052"/>
      <point x="1279" y="983"/>
      <point x="1401" y="803" type="curve"/>
      <point x="1521" y="984"/>
      <point x="1754" y="1052"/>
      <point x="1982" y="1052" type="curve" smooth="yes"/>
      <point x="2413" y="1052"/>
      <point x="2562" y="802"/>
      <point x="2599" y="609" type="curve"/>
      <point x="2599" y="558" type="line"/>
      <point x="2598" y="523"/>
      <point x="2584" y="450"/>
      <point x="2472" y="450" type="curve" smooth="yes"/>
      <point x="1526" y="450" type="line" smooth="yes"/>
      <point x="1515" y="450"/>
      <point x="1509" y="448"/>
      <point x="1509" y="441" type="curve" smooth="yes"/>
      <point x="1510" y="316"/>
      <point x="1584" y="107"/>
      <point x="2007" y="107" type="curve" smooth="yes"/>
      <point x="2253" y="107"/>
      <point x="2395" y="170"/>
      <point x="2461" y="201" type="curve" smooth="yes"/>
      <point x="2479" y="210"/>
      <point x="2493" y="213"/>
      <point x="2504" y="213" type="curve" smooth="yes"/>
      <point x="2535" y="213"/>
      <point x="2538" y="180"/>
      <point x="2550" y="140" type="curve" smooth="yes"/>
      <point x="2553" y="130"/>
      <point x="2556" y="120"/>
      <point x="2556" y="111" type="curve" smooth="yes"/>
      <point x="2556" y="96"/>
      <point x="2548" y="83"/>
      <point x="2521" y="70" type="curve" smooth="yes"/>
      <point x="2395" y="8"/>
      <point x="2177" y="-42"/>
      <point x="1995" y="-42" type="curve" smooth="yes"/>
      <point x="1744" y="-42"/>
      <point x="1509" y="21"/>
      <point x="1393" y="208" type="curve"/>
      <point x="1263" y="31"/>
      <point x="1020" y="-41"/>
    </contour>
    <contour>
      <point x="1521" y="589" type="curve" smooth="yes"/>
      <point x="2424" y="589" type="line"/>
      <point x="2423" y="591" type="line"/>
      <point x="2398" y="738"/>
      <point x="2308" y="902"/>
      <point x="1981" y="902" type="curve" smooth="yes"/>
      <point x="1767" y="902"/>
      <point x="1549" y="813"/>
      <point x="1513" y="596" type="curve" smooth="yes"/>
      <point x="1513" y="592"/>
      <point x="1514" y="589"/>
    </contour>
    <contour>
      <point x="815" y="108" type="curve" smooth="yes"/>
      <point x="1071" y="108"/>
      <point x="1294" y="241"/>
      <point x="1294" y="504" type="curve" smooth="yes"/>
      <point x="1294" y="791"/>
      <point x="1054" y="903"/>
      <point x="815" y="903" type="curve" smooth="yes"/>
      <point x="572" y="903"/>
      <point x="349" y="789"/>
      <point x="350" y="504" type="curve"/>
      <point x="349" y="244"/>
      <point x="556" y="108"/>
    </contour>
  </outline>
</glyph>
<glyph name="ring" format="1">
  <advance width="1717"/>
  <unicode hex="02DA"/>
  <outline>
    <contour>
      <point x="828" y="1490" type="curve" smooth="yes"/>
      <point x="906" y="1490"/>
      <point x="973" y="1535"/>
      <point x="973" y="1627" type="curve" smooth="yes"/>
      <point x="973" y="1725"/>
      <point x="901" y="1763"/>
      <point x="828" y="1763" type="curve" smooth="yes"/>
      <point x="751" y="1763"/>
      <point x="679" y="1725"/>
      <point x="681" y="1627" type="curve"/>
      <point x="679" y="1536"/>
      <point x="746" y="1490"/>
    </contour>
    <contour>
      <point x="827" y="1405" type="curve" smooth="yes"/>
      <point x="718" y="1405"/>
      <point x="573" y="1464"/>
      <point x="573" y="1627" type="curve" smooth="yes"/>
      <point x="573" y="1793"/>
      <point x="707" y="1850"/>
      <point x="827" y="1850" type="curve" smooth="yes"/>
      <point x="946" y="1850"/>
      <point x="1080" y="1793"/>
      <point x="1080" y="1627" type="curve" smooth="yes"/>
      <point x="1080" y="1465"/>
      <point x="935" y="1405"/>
    </contour>
  </outline>
</glyph>
<glyph name="uni030F" format="1">
  <advance width="1781"/>
  <unicode hex="030F"/>
  <outline>
    <contour>
      <point x="684" y="1301" type="line" smooth="yes"/>
      <point x="646" y="1301"/>
      <point x="643" y="1316"/>
      <point x="628" y="1340" type="curve" smooth="yes"/>
      <point x="427" y="1667" type="line" smooth="yes"/>
      <point x="420" y="1679"/>
      <point x="415" y="1693"/>
      <point x="415" y="1704" type="curve" smooth="yes"/>
      <point x="415" y="1720"/>
      <point x="423" y="1732"/>
      <point x="443" y="1732" type="curve" smooth="yes"/>
      <point x="606" y="1732" type="line" smooth="yes"/>
      <point x="650" y="1732"/>
      <point x="670" y="1720"/>
      <point x="678" y="1677" type="curve" smooth="yes"/>
      <point x="740" y="1368" type="line" smooth="yes"/>
      <point x="743" y="1354"/>
      <point x="744" y="1342"/>
      <point x="744" y="1333" type="curve" smooth="yes"/>
      <point x="744" y="1306"/>
      <point x="731" y="1301"/>
      <point x="702" y="1301" type="curve" smooth="yes"/>
    </contour>
    <contour>
      <point x="1044" y="1301" type="line" smooth="yes"/>
      <point x="1006" y="1301"/>
      <point x="1003" y="1316"/>
      <point x="988" y="1340" type="curve" smooth="yes"/>
      <point x="787" y="1667" type="line" smooth="yes"/>
      <point x="780" y="1679"/>
      <point x="775" y="1693"/>
      <point x="775" y="1704" type="curve" smooth="yes"/>
      <point x="775" y="1720"/>
      <point x="783" y="1732"/>
      <point x="803" y="1732" type="curve" smooth="yes"/>
      <point x="966" y="1732" type="line" smooth="yes"/>
      <point x="1010" y="1732"/>
      <point x="1028" y="1720"/>
      <point x="1036" y="1677" type="curve" smooth="yes"/>
      <point x="1100" y="1368" type="line" smooth="yes"/>
      <point x="1103" y="1354"/>
      <point x="1104" y="1342"/>
      <point x="1104" y="1333" type="curve" smooth="yes"/>
      <point x="1104" y="1306"/>
      <point x="1091" y="1301"/>
      <point x="1062" y="1301" type="curve" smooth="yes"/>
    </contour>
  </outline>
</glyph>
<glyph name="quotedblleft" format="1">
  <advance width="1130"/>
  <unicode hex="201C"/>
  <outline>
    <contour>
      <point x="226" y="914" type="line" smooth="yes"/>
      <point x="183" y="914"/>
      <point x="149" y="948"/>
      <point x="149" y="991" type="curve" smooth="yes"/>
      <point x="149" y="1134" type="line" smooth="yes"/>
      <point x="149" y="1371"/>
      <point x="278" y="1507"/>
      <point x="416" y="1530" type="curve" smooth="yes"/>
      <point x="421" y="1531"/>
      <point x="426" y="1531"/>
      <point x="431" y="1531" type="curve" smooth="yes"/>
      <point x="460" y="1531"/>
      <point x="482" y="1516"/>
      <point x="482" y="1485" type="curve" smooth="yes"/>
      <point x="482" y="1476" type="line" smooth="yes"/>
      <point x="482" y="1422"/>
      <point x="464" y="1428"/>
      <point x="421" y="1401" type="curve" smooth="yes"/>
      <point x="352" y="1358"/>
      <point x="320" y="1281"/>
      <point x="320" y="1257" type="curve" smooth="yes"/>
      <point x="320" y="1241"/>
      <point x="322" y="1230"/>
      <point x="337" y="1230" type="curve" smooth="yes"/>
      <point x="422" y="1230" type="line" smooth="yes"/>
      <point x="460" y="1230"/>
      <point x="482" y="1219"/>
      <point x="482" y="1181" type="curve" smooth="yes"/>
      <point x="482" y="978" type="line" smooth="yes"/>
      <point x="482" y="935"/>
      <point x="465" y="914"/>
      <point x="422" y="914" type="curve" smooth="yes"/>
    </contour>
    <contour>
      <point x="698" y="914" type="line" smooth="yes"/>
      <point x="655" y="914"/>
      <point x="621" y="948"/>
      <point x="621" y="991" type="curve" smooth="yes"/>
      <point x="621" y="1134" type="line" smooth="yes"/>
      <point x="621" y="1371"/>
      <point x="751" y="1507"/>
      <point x="889" y="1530" type="curve" smooth="yes"/>
      <point x="894" y="1531"/>
      <point x="899" y="1531"/>
      <point x="904" y="1531" type="curve" smooth="yes"/>
      <point x="932" y="1531"/>
      <point x="954" y="1516"/>
      <point x="954" y="1485" type="curve" smooth="yes"/>
      <point x="954" y="1476" type="line" smooth="yes"/>
      <point x="954" y="1422"/>
      <point x="937" y="1428"/>
      <point x="894" y="1401" type="curve" smooth="yes"/>
      <point x="825" y="1358"/>
      <point x="792" y="1281"/>
      <point x="792" y="1257" type="curve" smooth="yes"/>
      <point x="792" y="1241"/>
      <point x="794" y="1230"/>
      <point x="809" y="1230" type="curve" smooth="yes"/>
      <point x="894" y="1230" type="line" smooth="yes"/>
      <point x="932" y="1230"/>
      <point x="954" y="1219"/>
      <point x="954" y="1181" type="curve" smooth="yes"/>
      <point x="954" y="978" type="line" smooth="yes"/>
      <point x="954" y="935"/>
      <point x="937" y="914"/>
      <point x="894" y="914" type="curve" smooth="yes"/>
    </contour>
  </outline>
</glyph>
<glyph name="quotedblright" format="1">
  <advance width="1082"/>
  <unicode hex="201D"/>
  <outline>
    <contour>
      <point x="216" y="920" type="curve" smooth="yes"/>
      <point x="211" y="919"/>
      <point x="206" y="919"/>
      <point x="201" y="919" type="curve" smooth="yes"/>
      <point x="172" y="919"/>
      <point x="150" y="934"/>
      <point x="150" y="965" type="curve" smooth="yes"/>
      <point x="150" y="974" type="line" smooth="yes"/>
      <point x="150" y="1028"/>
      <point x="168" y="1022"/>
      <point x="211" y="1049" type="curve" smooth="yes"/>
      <point x="280" y="1092"/>
      <point x="312" y="1169"/>
      <point x="312" y="1193" type="curve" smooth="yes"/>
      <point x="312" y="1209"/>
      <point x="310" y="1220"/>
      <point x="295" y="1220" type="curve" smooth="yes"/>
      <point x="210" y="1220" type="line" smooth="yes"/>
      <point x="172" y="1220"/>
      <point x="150" y="1232"/>
      <point x="150" y="1270" type="curve" smooth="yes"/>
      <point x="150" y="1473" type="line" smooth="yes"/>
      <point x="150" y="1516"/>
      <point x="167" y="1537"/>
      <point x="210" y="1537" type="curve" smooth="yes"/>
      <point x="406" y="1537" type="line" smooth="yes"/>
      <point x="449" y="1537"/>
      <point x="483" y="1503"/>
      <point x="483" y="1460" type="curve" smooth="yes"/>
      <point x="483" y="1317" type="line" smooth="yes"/>
      <point x="483" y="1080"/>
      <point x="354" y="943"/>
    </contour>
    <contour>
      <point x="665" y="920" type="curve" smooth="yes"/>
      <point x="660" y="919"/>
      <point x="655" y="919"/>
      <point x="650" y="919" type="curve" smooth="yes"/>
      <point x="621" y="919"/>
      <point x="599" y="934"/>
      <point x="599" y="965" type="curve" smooth="yes"/>
      <point x="599" y="974" type="line" smooth="yes"/>
      <point x="599" y="1028"/>
      <point x="617" y="1022"/>
      <point x="660" y="1049" type="curve" smooth="yes"/>
      <point x="729" y="1092"/>
      <point x="761" y="1169"/>
      <point x="761" y="1193" type="curve" smooth="yes"/>
      <point x="761" y="1209"/>
      <point x="759" y="1220"/>
      <point x="744" y="1220" type="curve" smooth="yes"/>
      <point x="659" y="1220" type="line" smooth="yes"/>
      <point x="621" y="1220"/>
      <point x="599" y="1232"/>
      <point x="599" y="1270" type="curve" smooth="yes"/>
      <point x="599" y="1473" type="line" smooth="yes"/>
      <point x="599" y="1516"/>
      <point x="616" y="1537"/>
      <point x="659" y="1537" type="curve" smooth="yes"/>
      <point x="855" y="1537" type="line" smooth="yes"/>
      <point x="898" y="1537"/>
      <point x="933" y="1503"/>
      <point x="933" y="1460" type="curve" smooth="yes"/>
      <point x="933" y="1317" type="line" smooth="yes"/>
      <point x="933" y="1080"/>
      <point x="803" y="943"/>
    </contour>
  </outline>
</glyph>
<glyph name="dagger" format="1">
  <advance width="1366"/>
  <unicode hex="2020"/>
  <outline>
    <contour>
      <point x="654" y="0" type="line" smooth="yes"/>
      <point x="611" y="0"/>
      <point x="582" y="29"/>
      <point x="582" y="72" type="curve" smooth="yes"/>
      <point x="582" y="1284" type="line" smooth="yes"/>
      <point x="582" y="1304"/>
      <point x="570" y="1315"/>
      <point x="550" y="1315" type="curve" smooth="yes"/>
      <point x="193" y="1315" type="line" smooth="yes"/>
      <point x="162" y="1315"/>
      <point x="141" y="1340"/>
      <point x="141" y="1371" type="curve" smooth="yes"/>
      <point x="141" y="1419" type="line" smooth="yes"/>
      <point x="141" y="1455"/>
      <point x="162" y="1483"/>
      <point x="193" y="1483" type="curve" smooth="yes"/>
      <point x="583" y="1483" type="line"/>
      <point x="583" y="1878" type="line" smooth="yes"/>
      <point x="583" y="1921"/>
      <point x="612" y="1950"/>
      <point x="655" y="1950" type="curve" smooth="yes"/>
      <point x="714" y="1950" type="line" smooth="yes"/>
      <point x="757" y="1950"/>
      <point x="786" y="1921"/>
      <point x="786" y="1878" type="curve" smooth="yes"/>
      <point x="786" y="1483" type="line"/>
      <point x="1172" y="1483" type="line" smooth="yes"/>
      <point x="1203" y="1483"/>
      <point x="1224" y="1455"/>
      <point x="1224" y="1419" type="curve" smooth="yes"/>
      <point x="1224" y="1371" type="line" smooth="yes"/>
      <point x="1224" y="1340"/>
      <point x="1203" y="1315"/>
      <point x="1172" y="1315" type="curve" smooth="yes"/>
      <point x="817" y="1315" type="line" smooth="yes"/>
      <point x="797" y="1315"/>
      <point x="785" y="1304"/>
      <point x="785" y="1284" type="curve" smooth="yes"/>
      <point x="785" y="72" type="line" smooth="yes"/>
      <point x="785" y="29"/>
      <point x="756" y="0"/>
      <point x="713" y="0" type="curve" smooth="yes"/>
    </contour>
  </outline>
</glyph>
<glyph name="bullet" format="1">
  <advance width="1084"/>
  <unicode hex="2022"/>
  <outline>
    <contour>
      <point x="541" y="108" type="curve" smooth="yes"/>
      <point x="831" y="108"/>
      <point x="939" y="324"/>
      <point x="939" y="511" type="curve" smooth="yes"/>
      <point x="939" y="706"/>
      <point x="831" y="916"/>
      <point x="541" y="916" type="curve" smooth="yes"/>
      <point x="251" y="916"/>
      <point x="143" y="706"/>
      <point x="143" y="511" type="curve" smooth="yes"/>
      <point x="143" y="324"/>
      <point x="251" y="108"/>
    </contour>
  </outline>
</glyph>
<glyph name="guilsinglleft" format="1">
  <advance width="708"/>
  <unicode hex="2039"/>
  <outline>
    <contour>
      <point x="597" y="251" type="curve" smooth="yes"/>
      <point x="591" y="251"/>
      <point x="584" y="254"/>
      <point x="578" y="256" type="curve"/>
      <point x="127" y="597" type="line" smooth="yes"/>
      <point x="95" y="622"/>
      <point x="68" y="638"/>
      <point x="68" y="679" type="curve" smooth="yes"/>
      <point x="68" y="736" type="line" smooth="yes"/>
      <point x="68" y="777"/>
      <point x="95" y="793"/>
      <point x="128" y="817" type="curve" smooth="yes"/>
      <point x="578" y="1145" type="line"/>
      <point x="583" y="1146"/>
      <point x="589" y="1148"/>
      <point x="596" y="1148" type="curve" smooth="yes"/>
      <point x="617" y="1148"/>
      <point x="637" y="1132"/>
      <point x="637" y="1107" type="curve" smooth="yes"/>
      <point x="637" y="1033" type="line" smooth="yes"/>
      <point x="637" y="993"/>
      <point x="609" y="976"/>
      <point x="575" y="955" type="curve"/>
      <point x="254" y="722" type="line"/>
      <point x="248" y="719"/>
      <point x="245" y="714"/>
      <point x="245" y="709" type="curve" smooth="yes"/>
      <point x="245" y="704"/>
      <point x="248" y="699"/>
      <point x="254" y="696" type="curve"/>
      <point x="575" y="461" type="line"/>
      <point x="610" y="441"/>
      <point x="637" y="423"/>
      <point x="637" y="382" type="curve" smooth="yes"/>
      <point x="637" y="292" type="line" smooth="yes"/>
      <point x="637" y="268"/>
      <point x="617" y="251"/>
    </contour>
  </outline>
</glyph>
<glyph name="lozenge" format="1">
  <advance width="1352"/>
  <unicode hex="25CA"/>
  <outline>
    <contour>
      <point x="1043.22" y="648.736" type="curve" smooth="yes"/>
      <point x="709" y="60" type="line" smooth="yes"/>
      <point x="689.253" y="25.2139"/>
      <point x="668" y="0"/>
      <point x="627" y="0" type="curve" smooth="yes"/>
      <point x="571" y="0" type="line" smooth="yes"/>
      <point x="530" y="0"/>
      <point x="508.016" y="24.1201"/>
      <point x="489" y="60" type="curve" smooth="yes"/>
      <point x="162" y="677" type="line" smooth="yes"/>
      <point x="159.294" y="682.024"/>
      <point x="158.178" y="687.155"/>
      <point x="158.178" y="692.266" type="curve" smooth="yes"/>
      <point x="158.178" y="702.425"/>
      <point x="162.588" y="712.502"/>
      <point x="167.687" y="721.499" type="curve" smooth="yes"/>
      <point x="504" y="1305" type="line" smooth="yes"/>
      <point x="523.974" y="1339.65"/>
      <point x="545" y="1365"/>
      <point x="586" y="1365" type="curve" smooth="yes"/>
      <point x="642" y="1365" type="line" smooth="yes"/>
      <point x="683" y="1365"/>
      <point x="704.997" y="1340.89"/>
      <point x="724" y="1305" type="curve" smooth="yes"/>
      <point x="1033.5" y="720.5" type="line" smooth="yes"/>
      <point x="1045" y="699.107"/>
      <point x="1053.58" y="690.08"/>
      <point x="1053.58" y="677.731" type="curve" smooth="yes"/>
      <point x="1053.58" y="670.361"/>
      <point x="1050.53" y="661.807"/>
    </contour>
    <contour>
      <point x="868.5" y="717.5" type="curve" smooth="yes"/>
      <point x="630" y="1179" type="line" smooth="yes"/>
      <point x="626.689" y="1185.41"/>
      <point x="621" y="1188"/>
      <point x="616" y="1188" type="curve" smooth="yes"/>
      <point x="612" y="1188"/>
      <point x="605.132" y="1184.59"/>
      <point x="602" y="1179" type="curve" smooth="yes"/>
      <point x="342" y="715" type="line"/>
      <point x="334.59" y="704.996"/>
      <point x="330.915" y="698.46"/>
      <point x="330.915" y="690.709" type="curve" smooth="yes"/>
      <point x="330.915" y="683.655"/>
      <point x="333.959" y="675.596"/>
      <point x="340" y="663" type="curve" smooth="yes"/>
      <point x="584" y="186" type="line" smooth="yes"/>
      <point x="587.284" y="179.58"/>
      <point x="593" y="177"/>
      <point x="598" y="177" type="curve" smooth="yes"/>
      <point x="602" y="177"/>
      <point x="607.941" y="180.375"/>
      <point x="611" y="186" type="curve" smooth="yes"/>
      <point x="866" y="655" type="line" smooth="yes"/>
      <point x="873.883" y="671.034"/>
      <point x="879.046" y="677.708"/>
      <point x="879.046" y="686.71" type="curve" smooth="yes"/>
      <point x="879.046" y="693.721"/>
      <point x="875.915" y="702.144"/>
    </contour>
  </outline>
</glyph>
